<svg xmlns="http://www.w3.org/2000/svg" width="79" height="39" fill="none"><path fill="url(#a)" fill-rule="evenodd" d="M0 0v15.851c.046 2.348 1.519 7.043 7.043 7.043h17.594c1.606 0 3.992 1.413 3.992 4.22 0 2.809-2.523 4.497-3.992 4.497H10.965v3.877c0 1.468.734 3.212 3.212 3.212h11.126c3.44-.115 10.323-2.772 10.323-12.48 0-3.326-3.28-10.368-11.356-10.368.276-.59.826-1.836.826-4.864C25.096 6.928 23.261 0 14.383 0H0Zm0 31.611h6.263c1.376 0 2.5.904 2.5 2.5V38.7H2.409C.895 38.7 0 38.126 0 36.29v-4.679ZM11.929 6.882a4.496 4.496 0 1 0 0 8.992h2.248a4.496 4.496 0 1 0 0-8.992h-2.248Z" clip-rule="evenodd"/><path fill="url(#b)" d="M8.855 15.874H24.27c11.966.514 12.25 9.819 10.897 14.407.826-5.212-6.34-7.081-10.025-7.364H7.065c-5.468 0-6.973-4.695-7.042-7.043V7.042c0 7.103 5.888 8.848 8.832 8.832Z"/><path fill="#353535" d="M34.797 6.298c.359-.495.847-.897 1.466-1.207a4.549 4.549 0 0 1 2.096-.482c.904 0 1.72.217 2.45.65.73.432 1.305 1.051 1.725 1.855.421.792.631 1.7.631 2.728 0 1.026-.21 1.948-.63 2.764A4.774 4.774 0 0 1 40.79 14.5c-.73.445-1.54.668-2.43.668-.792 0-1.497-.155-2.116-.464-.606-.31-1.088-.705-1.447-1.187V15h-2.115V1.27h2.115v5.028Zm6.216 3.544c0-.705-.149-1.312-.445-1.819a2.833 2.833 0 0 0-1.15-1.169 2.985 2.985 0 0 0-1.522-.408c-.532 0-1.04.136-1.522.408-.47.272-.854.668-1.15 1.188-.285.52-.427 1.132-.427 1.837 0 .705.142 1.323.427 1.855.297.52.68.916 1.15 1.188.482.272.99.408 1.522.408.544 0 1.051-.136 1.521-.408a3.058 3.058 0 0 0 1.15-1.225c.297-.532.446-1.15.446-1.855Zm2.24 0c0-1.027.21-1.936.631-2.728.433-.792 1.014-1.404 1.744-1.837a4.671 4.671 0 0 1 2.45-.668c.803 0 1.502.16 2.096.482.606.31 1.089.7 1.447 1.17V4.775h2.134V15h-2.134v-1.521c-.358.482-.847.884-1.465 1.206-.619.321-1.324.482-2.116.482a4.542 4.542 0 0 1-2.412-.668c-.73-.458-1.311-1.089-1.744-1.893-.42-.816-.63-1.738-.63-2.764Zm8.368.037c0-.705-.148-1.318-.445-1.837a2.997 2.997 0 0 0-1.132-1.188 2.985 2.985 0 0 0-1.521-.408c-.545 0-1.052.136-1.522.408-.47.26-.853.65-1.15 1.17-.285.506-.427 1.113-.427 1.818 0 .705.142 1.323.427 1.855.297.532.68.94 1.15 1.225.483.272.99.408 1.522.408.544 0 1.051-.136 1.521-.408.47-.272.848-.668 1.132-1.188.297-.532.445-1.15.445-1.855Zm5.73-8.61V15h-2.116V1.27h2.115Zm3.945 5.233v5.659c0 .383.087.662.26.835.186.16.495.241.928.241h1.299V15h-1.67c-.953 0-1.683-.223-2.19-.668-.507-.445-.76-1.169-.76-2.171v-5.66h-1.207V4.777h1.206V2.234h2.134v2.542h2.487v1.726h-2.487Zm4.214-3.08a1.31 1.31 0 0 1-.965-.39 1.31 1.31 0 0 1-.39-.965c0-.383.13-.705.39-.965s.581-.39.965-.39c.37 0 .686.13.946.39.26.26.39.582.39.965s-.13.705-.39.965-.575.39-.946.39Zm1.039 1.354V15h-2.116V4.776h2.116Zm.773 5.103c0-1.052.21-1.973.63-2.765a4.6 4.6 0 0 1 1.782-1.856c.755-.432 1.62-.649 2.598-.649 1.237 0 2.258.297 3.062.89.816.582 1.366 1.417 1.651 2.506h-2.282a2.414 2.414 0 0 0-.891-1.188c-.408-.284-.922-.427-1.54-.427-.866 0-1.559.31-2.078.928-.507.606-.761 1.46-.761 2.56 0 1.102.254 1.961.76 2.58.52.618 1.213.928 2.079.928 1.225 0 2.035-.538 2.43-1.615h2.283c-.297 1.04-.854 1.868-1.67 2.487-.817.606-1.83.909-3.043.909-.977 0-1.843-.216-2.598-.65a4.762 4.762 0 0 1-1.781-1.855c-.42-.804-.631-1.732-.631-2.783Zm-25.483 14.4c.359-.47.848-.866 1.466-1.188.618-.321 1.317-.482 2.097-.482.89 0 1.7.223 2.43.668a4.543 4.543 0 0 1 1.745 1.837c.42.792.63 1.7.63 2.728 0 1.026-.21 1.948-.63 2.764a4.774 4.774 0 0 1-1.744 1.893c-.73.445-1.54.668-2.431.668-.78 0-1.472-.155-2.078-.464a4.767 4.767 0 0 1-1.485-1.187v6.346h-2.115V22.776h2.115v1.503Zm6.216 3.563c0-.705-.148-1.312-.445-1.819a2.833 2.833 0 0 0-1.15-1.169 2.985 2.985 0 0 0-1.522-.408c-.532 0-1.04.136-1.522.408-.47.272-.853.668-1.15 1.188-.285.52-.427 1.132-.427 1.837 0 .705.142 1.323.427 1.855.297.52.68.916 1.15 1.188.483.272.99.408 1.522.408.544 0 1.051-.136 1.521-.408a3.058 3.058 0 0 0 1.15-1.225c.298-.532.446-1.15.446-1.855Zm4.022-6.42a1.31 1.31 0 0 1-.965-.39 1.31 1.31 0 0 1-.39-.965c0-.384.13-.705.39-.965s.581-.39.965-.39c.37 0 .686.13.946.39.26.26.39.581.39.965s-.13.705-.39.965-.575.39-.946.39Zm1.039 1.354V33H51V22.776h2.115Zm3.593 1.503c.36-.47.848-.866 1.466-1.188.619-.321 1.318-.482 2.097-.482.89 0 1.7.223 2.43.668a4.543 4.543 0 0 1 1.745 1.837c.42.792.63 1.7.63 2.728 0 1.026-.21 1.948-.63 2.764a4.774 4.774 0 0 1-1.744 1.893c-.73.445-1.54.668-2.431.668-.78 0-1.472-.155-2.078-.464a4.768 4.768 0 0 1-1.485-1.187v6.346h-2.115V22.776h2.115v1.503Zm6.216 3.563c0-.705-.148-1.312-.445-1.819a2.833 2.833 0 0 0-1.15-1.169 2.985 2.985 0 0 0-1.522-.408c-.532 0-1.039.136-1.521.408-.47.272-.854.668-1.15 1.188-.285.52-.428 1.132-.428 1.837 0 .705.143 1.323.427 1.855.297.52.68.916 1.15 1.188.483.272.99.408 1.522.408.544 0 1.052-.136 1.522-.408a3.058 3.058 0 0 0 1.15-1.225c.297-.532.445-1.15.445-1.855Zm12.316-.204c0 .383-.025.73-.074 1.039h-7.812c.062.816.365 1.472.91 1.966.544.495 1.212.743 2.003.743 1.138 0 1.942-.477 2.413-1.43h2.282a4.636 4.636 0 0 1-1.689 2.32c-.804.594-1.806.891-3.006.891-.977 0-1.855-.217-2.635-.65a4.854 4.854 0 0 1-1.818-1.855c-.433-.804-.65-1.732-.65-2.783 0-1.052.211-1.973.632-2.765a4.565 4.565 0 0 1 1.8-1.855c.779-.433 1.67-.65 2.671-.65.965 0 1.825.21 2.58.63a4.443 4.443 0 0 1 1.762 1.782c.42.755.631 1.627.631 2.616Zm-2.208-.669c-.012-.779-.29-1.404-.835-1.873-.544-.47-1.218-.706-2.022-.706-.73 0-1.355.235-1.874.706-.52.457-.83 1.082-.928 1.873h5.66Z"/><defs><linearGradient id="a" x1="2.592" x2="26.473" y1="37.759" y2="10.461" gradientUnits="userSpaceOnUse"><stop stop-color="#3C0000"/><stop offset="1" stop-color="#D83C3C"/></linearGradient><linearGradient id="b" x1="-2.409" x2="35.74" y1="7.708" y2="31.336" gradientUnits="userSpaceOnUse"><stop stop-color="#D83C3C"/><stop offset="1" stop-color="#3C0000"/></linearGradient></defs></svg>